<svg xmlns="http://www.w3.org/2000/svg" viewBox="0 0 200 200" role="img" aria-label="MAS Monograms">
  <defs><linearGradient id="c1m-gold" gradientTransform="rotate(90 .5 .5)">
  <stop offset="0" stop-color="#A9772A"/><stop offset=".28" stop-color="#D9B15F"/><stop offset=".5" stop-color="#F0D58A"/><stop offset=".72" stop-color="#D9B15F"/><stop offset="1" stop-color="#A9772A"/></linearGradient><linearGradient id="c1m-goldv" gradientTransform="rotate(0 .5 .5)">
  <stop offset="0" stop-color="#A9772A"/><stop offset=".28" stop-color="#D9B15F"/><stop offset=".5" stop-color="#F0D58A"/><stop offset=".72" stop-color="#D9B15F"/><stop offset="1" stop-color="#A9772A"/></linearGradient><linearGradient id="c1m-goldd" gradientTransform="rotate(35 .5 .5)">
  <stop offset="0" stop-color="#A9772A"/><stop offset=".28" stop-color="#D9B15F"/><stop offset=".5" stop-color="#F0D58A"/><stop offset=".72" stop-color="#D9B15F"/><stop offset="1" stop-color="#A9772A"/></linearGradient><pattern id="c1m-satT" patternUnits="userSpaceOnUse" width="6" height="6" patternTransform="rotate(-38)"><rect width="6" height="2.04" fill="#ffe9e0" fill-opacity="0.3"/><rect y="3.72" width="6" height="1.2" fill="#3a0e08" fill-opacity="0.35"/></pattern>
  <mask id="c1m-mM" maskUnits="userSpaceOnUse" x="-600" y="-700" width="1800" height="1400"><rect x="-600" y="-700" width="1800" height="1400" fill="#fff"/><g fill="#000" stroke="#000" stroke-width="11" stroke-linejoin="round"><path transform="translate(-58.98 22)" d="M177.59 39.56Q135.45 39.56 100.41 27.09Q65.36 14.62 43.86 -9.68Q22.36 -33.97 20.21 -69.66Q19.35 -84.28 24.94 -101.91Q30.53 -119.54 40.64 -136.95Q50.74 -154.37 64.72 -168.34Q78.69 -182.32 94.6 -189.63Q95.89 -190.49 98.69 -190.92Q101.48 -191.35 102.77 -191.35Q105.35 -191.35 105.35 -190.06Q105.35 -187.91 98.9 -183.18Q80.84 -168.99 69.23 -150.5Q57.19 -132.01 51.17 -110.94Q45.15 -89.87 45.15 -68.37Q45.15 -43 56.11 -24.73Q67.08 -6.45 85.57 5.38Q104.06 17.2 127.71 22.79Q151.36 28.38 177.16 28.38Q205.97 28.38 234.13 21.93Q262.3 15.48 285.52 3.44Q321.21 -15.48 342.06 -43.43Q362.92 -71.38 362.92 -98.9Q362.92 -113.52 356.69 -126.85Q350.45 -140.18 336.69 -150.93Q326.37 -159.1 311.53 -166.41Q296.7 -173.72 280.14 -180.6Q263.59 -187.48 247.68 -194.57Q231.77 -201.67 219.73 -209.84Q202.53 -221.45 194.57 -234.78Q186.62 -248.11 186.62 -261.44Q186.62 -277.35 195.87 -292.4Q205.11 -307.45 221.23 -319.7Q237.36 -331.96 257.57 -338.84Q275.2 -344.86 296.05 -348.3Q316.91 -351.74 337.12 -351.74Q353.89 -351.74 369.15 -349.38Q384.42 -347.01 396.03 -340.99Q410.65 -334.11 418.39 -322.72Q426.13 -311.32 426.13 -298.85Q426.13 -281.65 410.65 -268.75Q405.06 -264.45 398.18 -260.79Q391.3 -257.14 381.84 -254.56Q380.12 -254.13 377.97 -254.13Q372.81 -254.13 372.81 -257.14Q372.81 -258.86 375.61 -260.8Q378.4 -262.73 383.99 -263.16Q396.89 -264.88 403.55 -273.05Q410.22 -281.22 410.22 -291.97Q410.22 -303.15 402.69 -314.12Q395.17 -325.08 379.69 -332.61Q364.21 -340.13 340.13 -340.13Q326.37 -340.13 309.81 -337.12Q293.26 -334.11 273.91 -327.23Q250.26 -319.06 234.56 -303.15Q218.87 -287.24 218.87 -269.18Q218.87 -258 226.39 -246.61Q233.92 -235.21 250.69 -224.89Q264.88 -216.29 282.94 -207.91Q301 -199.52 319.49 -191.13Q337.98 -182.75 353.03 -173.29Q376.68 -158.67 387 -141.9Q397.32 -125.13 397.32 -107.5Q397.32 -86.86 385.06 -66Q372.81 -45.15 353.03 -26.88Q333.25 -8.6 309.6 5.59Q282.08 21.93 247.46 30.75Q212.85 39.56 177.59 39.56Z"/></g><g fill="#fff"><circle cx="236" cy="-160" r="20"/><circle cx="37" cy="-160" r="17"/></g></mask>
  <mask id="c1m-mA" maskUnits="userSpaceOnUse" x="-600" y="-700" width="1800" height="1400"><rect x="-600" y="-700" width="1800" height="1400" fill="#fff"/><g fill="#000" stroke="#000" stroke-width="11" stroke-linejoin="round"><path transform="translate(-58.98 22)" d="M177.59 39.56Q135.45 39.56 100.41 27.09Q65.36 14.62 43.86 -9.68Q22.36 -33.97 20.21 -69.66Q19.35 -84.28 24.94 -101.91Q30.53 -119.54 40.64 -136.95Q50.74 -154.37 64.72 -168.34Q78.69 -182.32 94.6 -189.63Q95.89 -190.49 98.69 -190.92Q101.48 -191.35 102.77 -191.35Q105.35 -191.35 105.35 -190.06Q105.35 -187.91 98.9 -183.18Q80.84 -168.99 69.23 -150.5Q57.19 -132.01 51.17 -110.94Q45.15 -89.87 45.15 -68.37Q45.15 -43 56.11 -24.73Q67.08 -6.45 85.57 5.38Q104.06 17.2 127.71 22.79Q151.36 28.38 177.16 28.38Q205.97 28.38 234.13 21.93Q262.3 15.48 285.52 3.44Q321.21 -15.48 342.06 -43.43Q362.92 -71.38 362.92 -98.9Q362.92 -113.52 356.69 -126.85Q350.45 -140.18 336.69 -150.93Q326.37 -159.1 311.53 -166.41Q296.7 -173.72 280.14 -180.6Q263.59 -187.48 247.68 -194.57Q231.77 -201.67 219.73 -209.84Q202.53 -221.45 194.57 -234.78Q186.62 -248.11 186.62 -261.44Q186.62 -277.35 195.87 -292.4Q205.11 -307.45 221.23 -319.7Q237.36 -331.96 257.57 -338.84Q275.2 -344.86 296.05 -348.3Q316.91 -351.74 337.12 -351.74Q353.89 -351.74 369.15 -349.38Q384.42 -347.01 396.03 -340.99Q410.65 -334.11 418.39 -322.72Q426.13 -311.32 426.13 -298.85Q426.13 -281.65 410.65 -268.75Q405.06 -264.45 398.18 -260.79Q391.3 -257.14 381.84 -254.56Q380.12 -254.13 377.97 -254.13Q372.81 -254.13 372.81 -257.14Q372.81 -258.86 375.61 -260.8Q378.4 -262.73 383.99 -263.16Q396.89 -264.88 403.55 -273.05Q410.22 -281.22 410.22 -291.97Q410.22 -303.15 402.69 -314.12Q395.17 -325.08 379.69 -332.61Q364.21 -340.13 340.13 -340.13Q326.37 -340.13 309.81 -337.12Q293.26 -334.11 273.91 -327.23Q250.26 -319.06 234.56 -303.15Q218.87 -287.24 218.87 -269.18Q218.87 -258 226.39 -246.61Q233.92 -235.21 250.69 -224.89Q264.88 -216.29 282.94 -207.91Q301 -199.52 319.49 -191.13Q337.98 -182.75 353.03 -173.29Q376.68 -158.67 387 -141.9Q397.32 -125.13 397.32 -107.5Q397.32 -86.86 385.06 -66Q372.81 -45.15 353.03 -26.88Q333.25 -8.6 309.6 5.59Q282.08 21.93 247.46 30.75Q212.85 39.56 177.59 39.56Z"/></g><g fill="#fff"><circle cx="236" cy="-160" r="20"/><circle cx="37" cy="-160" r="17"/></g></mask>
  <clipPath id="c1m-cU"><circle cx="236" cy="-160" r="20"/><circle cx="37" cy="-160" r="17"/></clipPath>
  <mask id="c1m-mS" maskUnits="userSpaceOnUse" x="-600" y="-700" width="1800" height="1400"><rect x="-600" y="-700" width="1800" height="1400" fill="#fff"/><g clip-path="url(#c1m-cU)"><g fill="#000" stroke="#000" stroke-width="11" stroke-linejoin="round"><path d="M125.7 -75.75 122.4 -70.65 171.9 -205.35Q172.8 -208.35 173.7 -209.18Q174.6 -210 176.4 -210H225Q225.6 -210 225.97 -209.7Q226.35 -209.4 226.35 -209.1Q226.35 -208.65 225.9 -208.43Q225.45 -208.2 224.7 -207.9L211.5 -205.95Q208.95 -205.5 207.75 -203.55Q206.55 -201.6 206.7 -198.45L220.05 -10.5Q220.35 -6.9 221.25 -5.7Q222.15 -4.5 225.3 -3.9L237.6 -2.1Q238.5 -1.95 238.88 -1.73Q239.25 -1.5 239.25 -0.9Q239.25 -0.6 238.95 -0.3Q238.65 0 238.05 0H162Q161.4 0 161.03 -0.3Q160.65 -0.6 160.65 -0.9Q160.65 -1.5 161.03 -1.73Q161.4 -1.95 162.3 -2.1L174.75 -3.9Q177.9 -4.5 179.1 -5.92Q180.3 -7.35 180.15 -10.5L167.4 -189.9L169.8 -191.7L109.5 -21.6Q108.75 -19.35 108.07 -18.67Q107.4 -18 106.8 -18Q106.35 -18 105.97 -18.38Q105.6 -18.75 105.15 -19.5Q104.7 -20.25 104.1 -21.6L38.1 -189L40.2 -192.9L28.05 -21.15Q27.75 -15.15 31.8 -10.8Q35.85 -6.45 42.9 -4.5L56.25 -2.1Q57 -1.8 57.38 -1.57Q57.75 -1.35 57.75 -0.9Q57.75 -0.6 57.45 -0.3Q57.15 0 56.55 0H-0.15Q-0.9 0 -1.2 -0.3Q-1.5 -0.6 -1.5 -0.9Q-1.5 -1.5 -0.97 -1.73Q-0.45 -1.95 0.15 -2.1L9.6 -4.35Q16.05 -6.3 20.4 -10.65Q24.75 -15 25.2 -21.6L36.9 -187.2Q37.65 -195.9 36.52 -200.55Q35.4 -205.2 31.65 -205.8L20.4 -207.45Q18.75 -207.75 17.92 -207.97Q17.1 -208.2 17.1 -208.8Q17.1 -210 19.5 -210H69.15Q70.65 -210 71.55 -209.25Q72.45 -208.5 73.35 -206.1Z"/><path transform="translate(174.42 0)" d="M40.35 -81H117.15L117.6 -78.15H39.6ZM47.55 -0.9Q47.55 -0.6 47.33 -0.3Q47.1 0 46.5 0H-0.45Q-0.9 0 -1.2 -0.3Q-1.5 -0.6 -1.5 -0.9Q-1.5 -1.5 -1.05 -1.73Q-0.6 -1.95 -0.3 -2.1L5.7 -3.75Q10.35 -5.4 15 -10.42Q19.65 -15.45 22.8 -26.1L72 -192.75Q73.65 -198.3 72 -201.67Q70.35 -205.05 65.7 -207Q64.05 -208.05 63.3 -208.35Q62.55 -208.65 62.55 -209.1Q62.55 -209.55 62.85 -209.77Q63.15 -210 63.9 -210H120Q120.6 -210 120.9 -209.77Q121.2 -209.55 121.2 -209.1Q121.2 -208.65 120.52 -208.2Q119.85 -207.75 118.2 -207.15Q114.45 -206.55 113.7 -205.2Q112.95 -203.85 114.15 -199.95L174.75 -9.9Q175.95 -6.3 178.27 -4.5Q180.6 -2.7 184.2 -2.25Q185.1 -2.1 185.47 -1.8Q185.85 -1.5 185.85 -0.9Q185.85 -0.6 185.55 -0.3Q185.25 0 184.65 0H120.45Q119.85 0 119.47 -0.3Q119.1 -0.6 119.1 -0.9Q119.1 -1.5 119.55 -1.65Q120 -1.8 120.9 -2.1L128.25 -3.15Q131.85 -4.05 132.75 -6Q133.65 -7.95 132.45 -11.55L74.25 -195L77.7 -202.5L25.65 -25.65Q23.85 -19.65 25.42 -15.3Q27 -10.95 31.2 -8.02Q35.4 -5.1 41.25 -3.3L46.2 -2.1Q46.95 -1.8 47.25 -1.57Q47.55 -1.35 47.55 -0.9Z"/></g></g></mask></defs>
  
  <circle cx="100" cy="110" r="84" fill="none" stroke="#0F1B2D" stroke-width="7"/>
  <circle cx="100" cy="110" r="74.5" fill="none" stroke="#0F1B2D" stroke-width="3.2"/>
  <g>
    <rect x="88.45" y="9.55" width="23.1" height="16.45" fill="#F4EEE3"/>
    <rect x="90.9" y="12" width="6.65" height="14" rx="1.26" fill="#B98A3E"/>
    <rect x="102.45" y="12" width="6.65" height="14" rx="1.26" fill="#B98A3E"/>
    <rect x="87.05" y="16.69" width="28" height="2.38" rx="1.19" fill="#B98A3E"/>
    <circle cx="117.15" cy="17.88" r="4.34" fill="#B98A3E"/>
  </g>
  <g transform="translate(49.34 151.75) scale(0.296448)"><g mask="url(#c1m-mM)"><g fill="#0F1B2D"><path d="M125.7 -75.75 122.4 -70.65 171.9 -205.35Q172.8 -208.35 173.7 -209.18Q174.6 -210 176.4 -210H225Q225.6 -210 225.97 -209.7Q226.35 -209.4 226.35 -209.1Q226.35 -208.65 225.9 -208.43Q225.45 -208.2 224.7 -207.9L211.5 -205.95Q208.95 -205.5 207.75 -203.55Q206.55 -201.6 206.7 -198.45L220.05 -10.5Q220.35 -6.9 221.25 -5.7Q222.15 -4.5 225.3 -3.9L237.6 -2.1Q238.5 -1.95 238.88 -1.73Q239.25 -1.5 239.25 -0.9Q239.25 -0.6 238.95 -0.3Q238.65 0 238.05 0H162Q161.4 0 161.03 -0.3Q160.65 -0.6 160.65 -0.9Q160.65 -1.5 161.03 -1.73Q161.4 -1.95 162.3 -2.1L174.75 -3.9Q177.9 -4.5 179.1 -5.92Q180.3 -7.35 180.15 -10.5L167.4 -189.9L169.8 -191.7L109.5 -21.6Q108.75 -19.35 108.07 -18.67Q107.4 -18 106.8 -18Q106.35 -18 105.97 -18.38Q105.6 -18.75 105.15 -19.5Q104.7 -20.25 104.1 -21.6L38.1 -189L40.2 -192.9L28.05 -21.15Q27.75 -15.15 31.8 -10.8Q35.85 -6.45 42.9 -4.5L56.25 -2.1Q57 -1.8 57.38 -1.57Q57.75 -1.35 57.75 -0.9Q57.75 -0.6 57.45 -0.3Q57.15 0 56.55 0H-0.15Q-0.9 0 -1.2 -0.3Q-1.5 -0.6 -1.5 -0.9Q-1.5 -1.5 -0.97 -1.73Q-0.45 -1.95 0.15 -2.1L9.6 -4.35Q16.05 -6.3 20.4 -10.65Q24.75 -15 25.2 -21.6L36.9 -187.2Q37.65 -195.9 36.52 -200.55Q35.4 -205.2 31.65 -205.8L20.4 -207.45Q18.75 -207.75 17.92 -207.97Q17.1 -208.2 17.1 -208.8Q17.1 -210 19.5 -210H69.15Q70.65 -210 71.55 -209.25Q72.45 -208.5 73.35 -206.1Z"/></g></g><g mask="url(#c1m-mA)"><g fill="#0F1B2D"><path transform="translate(174.42 0)" d="M40.35 -81H117.15L117.6 -78.15H39.6ZM47.55 -0.9Q47.55 -0.6 47.33 -0.3Q47.1 0 46.5 0H-0.45Q-0.9 0 -1.2 -0.3Q-1.5 -0.6 -1.5 -0.9Q-1.5 -1.5 -1.05 -1.73Q-0.6 -1.95 -0.3 -2.1L5.7 -3.75Q10.35 -5.4 15 -10.42Q19.65 -15.45 22.8 -26.1L72 -192.75Q73.65 -198.3 72 -201.67Q70.35 -205.05 65.7 -207Q64.05 -208.05 63.3 -208.35Q62.55 -208.65 62.55 -209.1Q62.55 -209.55 62.85 -209.77Q63.15 -210 63.9 -210H120Q120.6 -210 120.9 -209.77Q121.2 -209.55 121.2 -209.1Q121.2 -208.65 120.52 -208.2Q119.85 -207.75 118.2 -207.15Q114.45 -206.55 113.7 -205.2Q112.95 -203.85 114.15 -199.95L174.75 -9.9Q175.95 -6.3 178.27 -4.5Q180.6 -2.7 184.2 -2.25Q185.1 -2.1 185.47 -1.8Q185.85 -1.5 185.85 -0.9Q185.85 -0.6 185.55 -0.3Q185.25 0 184.65 0H120.45Q119.85 0 119.47 -0.3Q119.1 -0.6 119.1 -0.9Q119.1 -1.5 119.55 -1.65Q120 -1.8 120.9 -2.1L128.25 -3.15Q131.85 -4.05 132.75 -6Q133.65 -7.95 132.45 -11.55L74.25 -195L77.7 -202.5L25.65 -25.65Q23.85 -19.65 25.42 -15.3Q27 -10.95 31.2 -8.02Q35.4 -5.1 41.25 -3.3L46.2 -2.1Q46.95 -1.8 47.25 -1.57Q47.55 -1.35 47.55 -0.9Z"/></g></g><g mask="url(#c1m-mS)"><g fill="#8C3A2E"><path transform="translate(-58.98 22)" d="M177.59 39.56Q135.45 39.56 100.41 27.09Q65.36 14.62 43.86 -9.68Q22.36 -33.97 20.21 -69.66Q19.35 -84.28 24.94 -101.91Q30.53 -119.54 40.64 -136.95Q50.74 -154.37 64.72 -168.34Q78.69 -182.32 94.6 -189.63Q95.89 -190.49 98.69 -190.92Q101.48 -191.35 102.77 -191.35Q105.35 -191.35 105.35 -190.06Q105.35 -187.91 98.9 -183.18Q80.84 -168.99 69.23 -150.5Q57.19 -132.01 51.17 -110.94Q45.15 -89.87 45.15 -68.37Q45.15 -43 56.11 -24.73Q67.08 -6.45 85.57 5.38Q104.06 17.2 127.71 22.79Q151.36 28.38 177.16 28.38Q205.97 28.38 234.13 21.93Q262.3 15.48 285.52 3.44Q321.21 -15.48 342.06 -43.43Q362.92 -71.38 362.92 -98.9Q362.92 -113.52 356.69 -126.85Q350.45 -140.18 336.69 -150.93Q326.37 -159.1 311.53 -166.41Q296.7 -173.72 280.14 -180.6Q263.59 -187.48 247.68 -194.57Q231.77 -201.67 219.73 -209.84Q202.53 -221.45 194.57 -234.78Q186.62 -248.11 186.62 -261.44Q186.62 -277.35 195.87 -292.4Q205.11 -307.45 221.23 -319.7Q237.36 -331.96 257.57 -338.84Q275.2 -344.86 296.05 -348.3Q316.91 -351.74 337.12 -351.74Q353.89 -351.74 369.15 -349.38Q384.42 -347.01 396.03 -340.99Q410.65 -334.11 418.39 -322.72Q426.13 -311.32 426.13 -298.85Q426.13 -281.65 410.65 -268.75Q405.06 -264.45 398.18 -260.79Q391.3 -257.14 381.84 -254.56Q380.12 -254.13 377.97 -254.13Q372.81 -254.13 372.81 -257.14Q372.81 -258.86 375.61 -260.8Q378.4 -262.73 383.99 -263.16Q396.89 -264.88 403.55 -273.05Q410.22 -281.22 410.22 -291.97Q410.22 -303.15 402.69 -314.12Q395.17 -325.08 379.69 -332.61Q364.21 -340.13 340.13 -340.13Q326.37 -340.13 309.81 -337.12Q293.26 -334.11 273.91 -327.23Q250.26 -319.06 234.56 -303.15Q218.87 -287.24 218.87 -269.18Q218.87 -258 226.39 -246.61Q233.92 -235.21 250.69 -224.89Q264.88 -216.29 282.94 -207.91Q301 -199.52 319.49 -191.13Q337.98 -182.75 353.03 -173.29Q376.68 -158.67 387 -141.9Q397.32 -125.13 397.32 -107.5Q397.32 -86.86 385.06 -66Q372.81 -45.15 353.03 -26.88Q333.25 -8.6 309.6 5.59Q282.08 21.93 247.46 30.75Q212.85 39.56 177.59 39.56Z"/></g><g fill="url(#c1m-satT)"><path transform="translate(-58.98 22)" d="M177.59 39.56Q135.45 39.56 100.41 27.09Q65.36 14.62 43.86 -9.68Q22.36 -33.97 20.21 -69.66Q19.35 -84.28 24.94 -101.91Q30.53 -119.54 40.64 -136.95Q50.74 -154.37 64.72 -168.34Q78.69 -182.32 94.6 -189.63Q95.89 -190.49 98.69 -190.92Q101.48 -191.35 102.77 -191.35Q105.35 -191.35 105.35 -190.06Q105.35 -187.91 98.9 -183.18Q80.84 -168.99 69.23 -150.5Q57.19 -132.01 51.17 -110.94Q45.15 -89.87 45.15 -68.37Q45.15 -43 56.11 -24.73Q67.08 -6.45 85.57 5.38Q104.06 17.2 127.71 22.79Q151.36 28.38 177.16 28.38Q205.97 28.38 234.13 21.93Q262.3 15.48 285.52 3.44Q321.21 -15.48 342.06 -43.43Q362.92 -71.38 362.92 -98.9Q362.92 -113.52 356.69 -126.85Q350.45 -140.18 336.69 -150.93Q326.37 -159.1 311.53 -166.41Q296.7 -173.72 280.14 -180.6Q263.59 -187.48 247.68 -194.57Q231.77 -201.67 219.73 -209.84Q202.53 -221.45 194.57 -234.78Q186.62 -248.11 186.62 -261.44Q186.62 -277.35 195.87 -292.4Q205.11 -307.45 221.23 -319.7Q237.36 -331.96 257.57 -338.84Q275.2 -344.86 296.05 -348.3Q316.91 -351.74 337.12 -351.74Q353.89 -351.74 369.15 -349.38Q384.42 -347.01 396.03 -340.99Q410.65 -334.11 418.39 -322.72Q426.13 -311.32 426.13 -298.85Q426.13 -281.65 410.65 -268.75Q405.06 -264.45 398.18 -260.79Q391.3 -257.14 381.84 -254.56Q380.12 -254.13 377.97 -254.13Q372.81 -254.13 372.81 -257.14Q372.81 -258.86 375.61 -260.8Q378.4 -262.73 383.99 -263.16Q396.89 -264.88 403.55 -273.05Q410.22 -281.22 410.22 -291.97Q410.22 -303.15 402.69 -314.12Q395.17 -325.08 379.69 -332.61Q364.21 -340.13 340.13 -340.13Q326.37 -340.13 309.81 -337.12Q293.26 -334.11 273.91 -327.23Q250.26 -319.06 234.56 -303.15Q218.87 -287.24 218.87 -269.18Q218.87 -258 226.39 -246.61Q233.92 -235.21 250.69 -224.89Q264.88 -216.29 282.94 -207.91Q301 -199.52 319.49 -191.13Q337.98 -182.75 353.03 -173.29Q376.68 -158.67 387 -141.9Q397.32 -125.13 397.32 -107.5Q397.32 -86.86 385.06 -66Q372.81 -45.15 353.03 -26.88Q333.25 -8.6 309.6 5.59Q282.08 21.93 247.46 30.75Q212.85 39.56 177.59 39.56Z"/></g></g></g>
</svg>