<svg xmlns="http://www.w3.org/2000/svg" viewBox="0 0 809.2 130" role="img" aria-label="MAS Monograms" data-concept="signature-thread">
  <defs><linearGradient id="c2b-g" gradientTransform="rotate(0 .5 .5)">
  <stop offset="0" stop-color="#A9772A"/><stop offset=".28" stop-color="#D9B15F"/><stop offset=".5" stop-color="#F0D58A"/><stop offset=".72" stop-color="#D9B15F"/><stop offset="1" stop-color="#A9772A"/></linearGradient>
    <mask id="c2b-mt" maskUnits="userSpaceOnUse" x="-80" y="-120" width="900" height="200"><rect x="-80" y="-120" width="900" height="200" fill="#fff"/>
      <g fill="#000" stroke="#000" stroke-width="9" stroke-linejoin="round"><path transform="translate(273.95 0)" d="M275.05 0.3Q273.05 8.4 268.93 13.88Q264.8 19.35 258.6 22.12Q252.4 24.9 244.2 24.9Q238.5 24.9 235.32 22.9Q232.15 20.9 232.15 17.75Q232.15 15.55 233.62 14.05Q235.1 12.55 237.55 12.55Q239.3 12.55 240.85 13.38Q242.4 14.2 243.88 15.28Q245.35 16.35 246.88 17.18Q248.4 18 250.1 18Q253.2 18 255.9 16.55Q258.6 15.1 260.65 12.08Q262.7 9.05 263.85 4.4L270.15 -20.3L271.65 -18.6Q268.7 -12.2 265.15 -7.85Q261.6 -3.5 257.55 -1.27Q253.5 0.95 249.05 0.95Q245.75 0.95 243.43 -0.68Q241.1 -2.3 240.05 -5.55Q239 -8.8 239.45 -13.65Q239.85 -18.35 241.6 -23Q243.35 -27.65 246.32 -31.8Q249.3 -35.95 253.35 -39.12Q257.4 -42.3 262.4 -44.12Q267.4 -45.95 273.2 -45.95Q277.95 -45.95 280.88 -45.25Q283.8 -44.55 285.08 -43.33Q286.35 -42.1 286.15 -40.4Q286 -39.2 285.5 -38.38Q285 -37.55 284.43 -36.62Q283.85 -35.7 283.45 -34.15ZM250.6 -15Q250.25 -12.25 250.68 -10.4Q251.1 -8.55 252.15 -7.65Q253.2 -6.75 254.7 -6.75Q257.05 -6.75 259.55 -8.6Q262.05 -10.45 264.4 -13.55Q266.75 -16.65 268.68 -20.45Q270.6 -24.25 271.83 -28.2Q273.05 -32.15 273.2 -35.6Q273.3 -37.6 272.35 -38.65Q271.4 -39.7 269.65 -39.7Q267.25 -39.7 264.73 -38.33Q262.2 -36.95 259.85 -34.55Q257.5 -32.15 255.53 -29Q253.55 -25.85 252.25 -22.27Q250.95 -18.7 250.6 -15Z"/><path d="M45.35 -20.95 42.35 -19.2 60.7 -67.05Q61.35 -68.75 62.12 -69.38Q62.9 -70 64.35 -70H78.75Q79.65 -70 80.08 -69.65Q80.5 -69.3 80.5 -68.7Q80.5 -68.2 80.18 -67.85Q79.85 -67.5 79.15 -67.3L75.6 -66.6Q74.3 -66.3 73.78 -65.53Q73.25 -64.75 73.35 -63.15L77.55 -6.25Q77.65 -4.8 78.12 -4.25Q78.6 -3.7 79.9 -3.35L83.25 -2.7Q83.95 -2.55 84.25 -2.2Q84.55 -1.85 84.55 -1.35Q84.55 -0.8 84.12 -0.4Q83.7 0 82.8 0H58.85Q57.95 0 57.53 -0.35Q57.1 -0.7 57.1 -1.3Q57.1 -1.8 57.4 -2.15Q57.7 -2.5 58.5 -2.7L61.85 -3.35Q63.3 -3.7 63.83 -4.33Q64.35 -4.95 64.3 -6.25L60.05 -62.5L62.75 -62.9L41.8 -7.15Q41.25 -5.6 40.67 -5.15Q40.1 -4.7 39.35 -4.7Q38.8 -4.7 38.35 -4.88Q37.9 -5.05 37.52 -5.6Q37.15 -6.15 36.7 -7.25L14.7 -61.7L17.3 -63.25L13.05 -8.6Q12.9 -6.55 14.05 -5.35Q15.2 -4.15 17.25 -3.45L20.85 -2.6Q21.4 -2.4 21.7 -2.1Q22 -1.8 22 -1.35Q22 -0.75 21.58 -0.38Q21.15 0 20.3 0H2.9Q2 0 1.58 -0.35Q1.15 -0.7 1.15 -1.3Q1.15 -1.9 1.55 -2.2Q1.95 -2.5 2.6 -2.75L5.35 -3.5Q7.25 -4.1 8.4 -5.33Q9.55 -6.55 9.7 -8.65L13.85 -61.2Q14.05 -63.65 13.5 -64.95Q12.95 -66.25 11.4 -66.55L8.3 -67.15Q7.4 -67.35 7 -67.7Q6.6 -68.05 6.6 -68.65Q6.6 -70 8.55 -70H23Q24.3 -70 25.1 -69.45Q25.9 -68.9 26.55 -67.25Z"/></g></mask></defs>
  <g transform="translate(4 92)">
    <g mask="url(#c2b-mt)" fill="#8C3A2E"><path d="M 229.97 16.37 L 231.36 16.43 L 232.77 16.46 L 234.19 16.45 L 235.60 16.40 L 237.02 16.32 L 238.43 16.21 L 239.83 16.06 L 241.24 15.87 L 242.63 15.65 L 244.03 15.40 L 245.41 15.10 L 246.78 14.78 L 248.14 14.42 L 249.50 14.02 L 250.85 13.63 L 252.15 13.09 L 253.43 12.52 L 254.69 11.92 L 255.93 11.28 L 257.14 10.60 L 258.34 9.89 L 259.51 9.15 L 260.65 8.37 L 261.76 7.56 L 262.85 6.72 L 263.90 5.83 L 264.93 4.92 L 265.92 3.97 L 266.88 2.98 L 267.80 1.96 L 268.68 0.91 L 269.53 -0.18 L 270.33 -1.31 L 271.10 -2.46 L 271.82 -3.65 L 272.49 -4.88 L 273.12 -6.13 L 273.70 -7.42 L 274.24 -8.74 L 274.72 -10.10 L 275.15 -11.48 L 275.53 -12.90 L 275.85 -14.34 L 276.12 -15.82 L 276.33 -17.32 L 276.48 -18.85 L 276.57 -20.41 L 276.61 -22.01 L 276.57 -23.60 L 276.46 -25.15 L 276.27 -26.65 L 276.01 -28.09 L 275.67 -29.48 L 275.27 -30.81 L 274.81 -32.08 L 274.28 -33.29 L 273.69 -34.45 L 273.04 -35.54 L 272.34 -36.57 L 271.58 -37.53 L 270.78 -38.43 L 269.93 -39.26 L 269.04 -40.03 L 268.11 -40.72 L 267.15 -41.34 L 266.16 -41.90 L 265.14 -42.38 L 264.09 -42.79 L 263.03 -43.12 L 261.95 -43.38 L 260.86 -43.57 L 259.76 -43.68 L 258.65 -43.72 L 257.54 -43.69 L 256.44 -43.57 L 255.34 -43.39 L 254.25 -43.12 L 253.18 -42.78 L 252.12 -42.37 L 251.08 -41.88 L 250.07 -41.31 L 249.09 -40.67 L 248.14 -39.96 L 247.23 -39.17 L 246.36 -38.31 L 245.53 -37.38 L 244.74 -36.38 L 244.01 -35.30 L 243.33 -34.16 L 242.71 -32.96 L 242.14 -31.68 L 241.64 -30.34 L 241.20 -28.94 L 240.82 -27.47 L 240.51 -25.93 L 240.27 -24.36 L 240.10 -22.88 L 240.00 -21.41 L 239.96 -19.95 L 239.98 -18.49 L 240.06 -17.05 L 240.21 -15.63 L 240.42 -14.22 L 240.69 -12.82 L 241.02 -11.45 L 241.42 -10.09 L 241.87 -8.75 L 242.39 -7.44 L 242.96 -6.14 L 243.59 -4.87 L 244.27 -3.63 L 245.02 -2.41 L 245.82 -1.21 L 246.67 -0.05 L 247.57 1.09 L 248.53 2.20 L 249.55 3.28 L 250.61 4.32 L 251.72 5.34 L 252.88 6.32 L 254.09 7.27 L 255.35 8.19 L 256.66 9.07 L 258.01 9.92 L 259.41 10.73 L 260.86 11.51 L 262.34 12.25 L 263.88 12.95 L 265.45 13.61 L 267.07 14.24 L 268.74 14.82 L 270.44 15.37 L 272.18 15.88 L 273.97 16.34 L 275.80 16.77 L 277.66 17.15 L 279.56 17.48 L 281.51 17.78 L 283.49 18.03 L 285.51 18.23 L 287.56 18.39 L 289.66 18.51 L 291.79 18.57 L 293.94 18.59 L 298.29 18.59 L 304.58 18.58 L 310.81 18.58 L 316.98 18.59 L 323.10 18.60 L 329.16 18.62 L 335.17 18.64 L 341.12 18.67 L 347.01 18.71 L 352.85 18.74 L 358.63 18.78 L 364.36 18.83 L 370.04 18.87 L 375.66 18.92 L 381.23 18.97 L 386.74 19.02 L 392.20 19.07 L 397.60 19.13 L 402.96 19.18 L 408.26 19.23 L 413.50 19.28 L 418.70 19.33 L 423.84 19.38 L 428.93 19.43 L 433.97 19.47 L 438.95 19.51 L 443.89 19.55 L 448.77 19.58 L 453.61 19.60 L 458.39 19.62 L 463.12 19.64 L 467.80 19.65 L 472.43 19.65 L 477.02 19.64 L 481.55 19.63 L 486.03 19.60 L 490.47 19.57 L 494.85 19.53 L 499.19 19.48 L 503.48 19.41 L 507.72 19.34 L 511.91 19.25 L 516.05 19.15 L 520.15 19.04 L 524.20 18.91 L 528.20 18.77 L 532.16 18.62 L 536.05 18.45 L 540.97 18.28 L 546.01 18.12 L 551.16 17.98 L 556.41 17.84 L 561.75 17.71 L 567.17 17.59 L 572.68 17.47 L 578.25 17.37 L 583.89 17.27 L 589.59 17.18 L 595.33 17.09 L 601.12 17.01 L 606.95 16.94 L 612.80 16.87 L 618.68 16.80 L 624.56 16.74 L 630.46 16.68 L 636.36 16.63 L 642.25 16.57 L 648.12 16.52 L 653.98 16.47 L 659.81 16.42 L 665.60 16.37 L 671.35 16.32 L 677.05 16.08 L 682.69 15.97 L 688.27 15.86 L 693.78 15.76 L 699.21 15.65 L 704.56 15.55 L 709.81 15.44 L 714.97 15.34 L 720.02 15.23 L 724.96 15.12 L 729.78 15.02 L 734.47 14.91 L 739.02 14.80 L 743.44 14.68 L 747.70 14.57 L 751.81 14.45 L 755.76 14.33 L 759.54 14.21 L 763.14 14.08 L 766.56 13.95 L 769.79 13.81 L 772.82 13.67 L 775.65 13.52 L 778.26 13.37 L 778.14 10.63 L 775.53 10.72 L 772.72 10.80 L 769.70 10.87 L 766.48 10.94 L 763.07 10.99 L 759.47 11.04 L 755.70 11.08 L 751.75 11.11 L 747.65 11.14 L 743.38 11.16 L 738.97 11.18 L 734.42 11.19 L 729.73 11.19 L 724.92 11.19 L 719.98 11.19 L 714.93 11.18 L 709.77 11.17 L 704.52 11.16 L 699.17 11.15 L 693.74 11.13 L 688.23 11.11 L 682.65 11.10 L 677.01 11.08 L 671.30 10.93 L 665.55 10.97 L 659.76 11.02 L 653.93 11.08 L 648.07 11.13 L 642.19 11.19 L 636.30 11.26 L 630.40 11.33 L 624.50 11.41 L 618.61 11.49 L 612.73 11.57 L 606.87 11.67 L 601.04 11.77 L 595.25 11.87 L 589.50 11.99 L 583.79 12.11 L 578.15 12.23 L 572.56 12.37 L 567.05 12.51 L 561.62 12.66 L 556.27 12.82 L 551.01 12.99 L 545.85 13.17 L 540.80 13.35 L 535.85 13.55 L 531.94 13.74 L 528.01 13.92 L 524.03 14.08 L 520.00 14.22 L 515.92 14.35 L 511.79 14.47 L 507.61 14.58 L 503.39 14.67 L 499.11 14.75 L 494.79 14.82 L 490.42 14.88 L 485.99 14.93 L 481.52 14.96 L 477.00 14.99 L 472.43 15.01 L 467.80 15.02 L 463.13 15.02 L 458.40 15.01 L 453.63 15.00 L 448.80 14.97 L 443.92 14.95 L 438.99 14.91 L 434.01 14.87 L 428.97 14.82 L 423.88 14.77 L 418.74 14.71 L 413.55 14.65 L 408.31 14.59 L 403.01 14.52 L 397.66 14.46 L 392.25 14.39 L 386.79 14.31 L 381.28 14.24 L 375.71 14.17 L 370.09 14.09 L 364.41 14.02 L 358.68 13.95 L 352.89 13.88 L 347.05 13.81 L 341.15 13.74 L 335.20 13.68 L 329.19 13.63 L 323.13 13.57 L 317.01 13.53 L 310.83 13.48 L 304.59 13.45 L 298.30 13.42 L 293.96 13.41 L 291.90 13.38 L 289.89 13.31 L 287.92 13.19 L 285.99 13.03 L 284.09 12.83 L 282.24 12.59 L 280.43 12.31 L 278.66 11.98 L 276.93 11.62 L 275.24 11.22 L 273.59 10.79 L 271.99 10.32 L 270.43 9.81 L 268.92 9.27 L 267.45 8.70 L 266.02 8.09 L 264.64 7.45 L 263.31 6.78 L 262.02 6.08 L 260.77 5.36 L 259.58 4.60 L 258.43 3.82 L 257.32 3.01 L 256.27 2.18 L 255.26 1.32 L 254.30 0.44 L 253.39 -0.46 L 252.52 -1.39 L 251.71 -2.34 L 250.94 -3.30 L 250.22 -4.29 L 249.55 -5.30 L 248.93 -6.32 L 248.36 -7.36 L 247.83 -8.42 L 247.36 -9.50 L 246.93 -10.59 L 246.56 -11.70 L 246.23 -12.83 L 245.96 -13.97 L 245.73 -15.13 L 245.56 -16.30 L 245.44 -17.49 L 245.37 -18.69 L 245.35 -19.90 L 245.39 -21.13 L 245.48 -22.38 L 245.63 -23.64 L 245.83 -25.00 L 246.08 -26.26 L 246.39 -27.46 L 246.74 -28.58 L 247.14 -29.64 L 247.58 -30.62 L 248.05 -31.54 L 248.56 -32.40 L 249.10 -33.19 L 249.67 -33.92 L 250.27 -34.59 L 250.89 -35.21 L 251.53 -35.76 L 252.19 -36.26 L 252.87 -36.70 L 253.56 -37.09 L 254.26 -37.42 L 254.98 -37.70 L 255.70 -37.93 L 256.43 -38.11 L 257.17 -38.24 L 257.91 -38.31 L 258.65 -38.34 L 259.39 -38.32 L 260.13 -38.24 L 260.86 -38.12 L 261.59 -37.94 L 262.31 -37.72 L 263.01 -37.44 L 263.71 -37.12 L 264.39 -36.74 L 265.05 -36.32 L 265.69 -35.84 L 266.31 -35.31 L 266.90 -34.73 L 267.47 -34.09 L 268.02 -33.40 L 268.53 -32.66 L 269.01 -31.86 L 269.45 -31.00 L 269.85 -30.09 L 270.21 -29.11 L 270.52 -28.08 L 270.79 -26.99 L 271.00 -25.83 L 271.16 -24.62 L 271.26 -23.34 L 271.29 -21.99 L 271.27 -20.62 L 271.19 -19.26 L 271.07 -17.94 L 270.89 -16.64 L 270.67 -15.38 L 270.40 -14.14 L 270.08 -12.93 L 269.72 -11.75 L 269.31 -10.60 L 268.86 -9.48 L 268.37 -8.38 L 267.84 -7.31 L 267.27 -6.27 L 266.67 -5.25 L 266.02 -4.26 L 265.34 -3.30 L 264.61 -2.36 L 263.86 -1.45 L 263.07 -0.57 L 262.25 0.29 L 261.39 1.12 L 260.50 1.92 L 259.59 2.69 L 258.64 3.44 L 257.66 4.16 L 256.66 4.85 L 255.63 5.51 L 254.57 6.14 L 253.49 6.75 L 252.39 7.33 L 251.27 7.87 L 250.12 8.39 L 248.96 8.88 L 247.81 9.45 L 246.63 9.94 L 245.43 10.41 L 244.21 10.85 L 242.98 11.26 L 241.73 11.63 L 240.46 11.98 L 239.18 12.30 L 237.89 12.58 L 236.58 12.84 L 235.27 13.06 L 233.95 13.25 L 232.62 13.41 L 231.29 13.53 L 229.93 13.63 Z"/></g>
    <g fill="#8C3A2E"><path d="M 2.00 15.20 L 2.98 15.46 L 3.96 15.72 L 4.94 15.97 L 5.93 16.20 L 6.91 16.42 L 7.89 16.61 L 8.87 16.79 L 9.85 16.93 L 10.83 17.05 L 11.81 17.13 L 12.80 17.18 L 13.78 17.20 L 14.76 17.18 L 15.74 17.13 L 16.72 17.05 L 17.70 16.93 L 18.68 16.79 L 19.67 16.61 L 20.65 16.42 L 21.63 16.20 L 22.61 15.97 L 23.59 15.72 L 24.57 15.46 L 25.55 15.20 L 25.55 14.80 L 24.57 14.54 L 23.59 14.28 L 22.61 14.03 L 21.63 13.80 L 20.65 13.58 L 19.67 13.39 L 18.68 13.21 L 17.70 13.07 L 16.72 12.95 L 15.74 12.87 L 14.76 12.82 L 13.78 12.80 L 12.80 12.82 L 11.81 12.87 L 10.83 12.95 L 9.85 13.07 L 8.87 13.21 L 7.89 13.39 L 6.91 13.58 L 5.93 13.80 L 4.94 14.03 L 3.96 14.28 L 2.98 14.54 L 2.00 14.80 Z"/><path d="M 39.99 15.20 L 40.97 15.46 L 41.95 15.72 L 42.94 15.97 L 43.92 16.20 L 44.90 16.42 L 45.88 16.61 L 46.86 16.79 L 47.84 16.93 L 48.82 17.05 L 49.81 17.13 L 50.79 17.18 L 51.77 17.20 L 52.75 17.18 L 53.73 17.13 L 54.71 17.05 L 55.69 16.93 L 56.68 16.79 L 57.66 16.61 L 58.64 16.42 L 59.62 16.20 L 60.60 15.97 L 61.58 15.72 L 62.57 15.46 L 63.55 15.20 L 63.55 14.80 L 62.57 14.54 L 61.58 14.28 L 60.60 14.03 L 59.62 13.80 L 58.64 13.58 L 57.66 13.39 L 56.68 13.21 L 55.69 13.07 L 54.71 12.95 L 53.73 12.87 L 52.75 12.82 L 51.77 12.80 L 50.79 12.82 L 49.81 12.87 L 48.82 12.95 L 47.84 13.07 L 46.86 13.21 L 45.88 13.39 L 44.90 13.58 L 43.92 13.80 L 42.94 14.03 L 41.95 14.28 L 40.97 14.54 L 39.99 14.80 Z"/><path d="M 77.98 15.20 L 78.96 15.46 L 79.95 15.72 L 80.93 15.97 L 81.91 16.20 L 82.89 16.42 L 83.87 16.61 L 84.85 16.79 L 85.83 16.93 L 86.82 17.05 L 87.80 17.13 L 88.78 17.18 L 89.76 17.20 L 90.74 17.18 L 91.72 17.13 L 92.71 17.05 L 93.69 16.93 L 94.67 16.79 L 95.65 16.61 L 96.63 16.42 L 97.61 16.20 L 98.59 15.97 L 99.58 15.72 L 100.56 15.46 L 101.54 15.20 L 101.54 14.80 L 100.56 14.54 L 99.58 14.28 L 98.59 14.03 L 97.61 13.80 L 96.63 13.58 L 95.65 13.39 L 94.67 13.21 L 93.69 13.07 L 92.71 12.95 L 91.72 12.87 L 90.74 12.82 L 89.76 12.80 L 88.78 12.82 L 87.80 12.87 L 86.82 12.95 L 85.83 13.07 L 84.85 13.21 L 83.87 13.39 L 82.89 13.58 L 81.91 13.80 L 80.93 14.03 L 79.95 14.28 L 78.96 14.54 L 77.98 14.80 Z"/><path d="M 115.97 15.20 L 116.96 15.46 L 117.94 15.72 L 118.92 15.97 L 119.90 16.20 L 120.88 16.42 L 121.86 16.61 L 122.85 16.79 L 123.83 16.93 L 124.81 17.05 L 125.79 17.13 L 126.77 17.18 L 127.75 17.20 L 128.73 17.18 L 129.72 17.13 L 130.70 17.05 L 131.68 16.93 L 132.66 16.79 L 133.64 16.61 L 134.62 16.42 L 135.60 16.20 L 136.59 15.97 L 137.57 15.72 L 138.55 15.46 L 139.53 15.20 L 139.53 14.80 L 138.55 14.54 L 137.57 14.28 L 136.59 14.03 L 135.60 13.80 L 134.62 13.58 L 133.64 13.39 L 132.66 13.21 L 131.68 13.07 L 130.70 12.95 L 129.72 12.87 L 128.73 12.82 L 127.75 12.80 L 126.77 12.82 L 125.79 12.87 L 124.81 12.95 L 123.83 13.07 L 122.85 13.21 L 121.86 13.39 L 120.88 13.58 L 119.90 13.80 L 118.92 14.03 L 117.94 14.28 L 116.96 14.54 L 115.97 14.80 Z"/><path d="M 153.97 15.20 L 154.95 15.46 L 155.93 15.72 L 156.91 15.97 L 157.89 16.20 L 158.87 16.42 L 159.86 16.61 L 160.84 16.79 L 161.82 16.93 L 162.80 17.05 L 163.78 17.13 L 164.76 17.18 L 165.74 17.20 L 166.73 17.18 L 167.71 17.13 L 168.69 17.05 L 169.67 16.93 L 170.65 16.79 L 171.63 16.61 L 172.61 16.42 L 173.60 16.20 L 174.58 15.97 L 175.56 15.72 L 176.54 15.46 L 177.52 15.20 L 177.52 14.80 L 176.54 14.54 L 175.56 14.28 L 174.58 14.03 L 173.60 13.80 L 172.61 13.58 L 171.63 13.39 L 170.65 13.21 L 169.67 13.07 L 168.69 12.95 L 167.71 12.87 L 166.73 12.82 L 165.74 12.80 L 164.76 12.82 L 163.78 12.87 L 162.80 12.95 L 161.82 13.07 L 160.84 13.21 L 159.86 13.39 L 158.87 13.58 L 157.89 13.80 L 156.91 14.03 L 155.93 14.28 L 154.95 14.54 L 153.97 14.80 Z"/><path d="M 191.96 15.20 L 192.94 15.46 L 193.92 15.72 L 194.90 15.97 L 195.88 16.20 L 196.87 16.42 L 197.85 16.61 L 198.83 16.79 L 199.81 16.93 L 200.79 17.05 L 201.77 17.13 L 202.75 17.18 L 203.74 17.20 L 204.72 17.18 L 205.70 17.13 L 206.68 17.05 L 207.66 16.93 L 208.64 16.79 L 209.62 16.61 L 210.61 16.42 L 211.59 16.20 L 212.57 15.97 L 213.55 15.72 L 214.53 15.46 L 215.51 15.20 L 215.51 14.80 L 214.53 14.54 L 213.55 14.28 L 212.57 14.03 L 211.59 13.80 L 210.61 13.58 L 209.62 13.39 L 208.64 13.21 L 207.66 13.07 L 206.68 12.95 L 205.70 12.87 L 204.72 12.82 L 203.74 12.80 L 202.75 12.82 L 201.77 12.87 L 200.79 12.95 L 199.81 13.07 L 198.83 13.21 L 197.85 13.39 L 196.87 13.58 L 195.88 13.80 L 194.90 14.03 L 193.92 14.28 L 192.94 14.54 L 191.96 14.80 Z"/></g>
    <circle cx="787.2" cy="11" r="4" fill="#8C3A2E"/>
    <path d="M45.35 -20.95 42.35 -19.2 60.7 -67.05Q61.35 -68.75 62.12 -69.38Q62.9 -70 64.35 -70H78.75Q79.65 -70 80.08 -69.65Q80.5 -69.3 80.5 -68.7Q80.5 -68.2 80.18 -67.85Q79.85 -67.5 79.15 -67.3L75.6 -66.6Q74.3 -66.3 73.78 -65.53Q73.25 -64.75 73.35 -63.15L77.55 -6.25Q77.65 -4.8 78.12 -4.25Q78.6 -3.7 79.9 -3.35L83.25 -2.7Q83.95 -2.55 84.25 -2.2Q84.55 -1.85 84.55 -1.35Q84.55 -0.8 84.12 -0.4Q83.7 0 82.8 0H58.85Q57.95 0 57.53 -0.35Q57.1 -0.7 57.1 -1.3Q57.1 -1.8 57.4 -2.15Q57.7 -2.5 58.5 -2.7L61.85 -3.35Q63.3 -3.7 63.83 -4.33Q64.35 -4.95 64.3 -6.25L60.05 -62.5L62.75 -62.9L41.8 -7.15Q41.25 -5.6 40.67 -5.15Q40.1 -4.7 39.35 -4.7Q38.8 -4.7 38.35 -4.88Q37.9 -5.05 37.52 -5.6Q37.15 -6.15 36.7 -7.25L14.7 -61.7L17.3 -63.25L13.05 -8.6Q12.9 -6.55 14.05 -5.35Q15.2 -4.15 17.25 -3.45L20.85 -2.6Q21.4 -2.4 21.7 -2.1Q22 -1.8 22 -1.35Q22 -0.75 21.58 -0.38Q21.15 0 20.3 0H2.9Q2 0 1.58 -0.35Q1.15 -0.7 1.15 -1.3Q1.15 -1.9 1.55 -2.2Q1.95 -2.5 2.6 -2.75L5.35 -3.5Q7.25 -4.1 8.4 -5.33Q9.55 -6.55 9.7 -8.65L13.85 -61.2Q14.05 -63.65 13.5 -64.95Q12.95 -66.25 11.4 -66.55L8.3 -67.15Q7.4 -67.35 7 -67.7Q6.6 -68.05 6.6 -68.65Q6.6 -70 8.55 -70H23Q24.3 -70 25.1 -69.45Q25.9 -68.9 26.55 -67.25Z M105.05 -27.65H132.95L133.15 -24.6H104.7ZM108.95 -1.3Q108.95 -0.7 108.55 -0.35Q108.15 0 107.25 0H91.8Q90.95 0 90.5 -0.35Q90.05 -0.7 90.05 -1.3Q90.05 -1.75 90.35 -2.05Q90.65 -2.35 91.3 -2.65L93.2 -3.25Q94.7 -3.85 95.8 -5.2Q96.9 -6.55 97.85 -9.75L114.45 -62.7Q115.05 -64.6 114.62 -65.58Q114.2 -66.55 112.55 -67.15Q111.55 -67.5 111.12 -67.88Q110.7 -68.25 110.7 -68.75Q110.7 -69.35 111.15 -69.68Q111.6 -70 112.5 -70H133.2Q134.05 -70 134.48 -69.68Q134.9 -69.35 134.9 -68.75Q134.9 -68.2 134.5 -67.83Q134.1 -67.45 133.2 -67.2Q131.85 -66.9 131.58 -66.33Q131.3 -65.75 131.75 -64.3L150.6 -6.7Q151.2 -4.9 152.05 -4.03Q152.9 -3.15 154.4 -2.85Q155.3 -2.5 155.62 -2.17Q155.95 -1.85 155.95 -1.3Q155.95 -0.7 155.53 -0.35Q155.1 0 154.2 0H133.2Q132.35 0 131.93 -0.35Q131.5 -0.7 131.5 -1.3Q131.5 -1.8 131.82 -2.1Q132.15 -2.4 132.85 -2.65L135.7 -3.1Q136.95 -3.45 137.07 -4.2Q137.2 -4.95 136.7 -6.55L117.85 -64.9L119.25 -66.4L101.6 -10.05Q101 -8.1 101.22 -6.78Q101.45 -5.45 102.47 -4.6Q103.5 -3.75 105.25 -3.15L107.65 -2.6Q108.3 -2.4 108.62 -2.1Q108.95 -1.8 108.95 -1.3Z M191.35 1.35Q186.9 1.35 183.88 0.18Q180.85 -1 179.05 -2.17Q177.25 -3.35 176.5 -3.35Q175.85 -3.35 175.2 -2.62Q174.55 -1.9 173.9 -0.95Q173.25 0 172.6 0.73Q171.95 1.45 171.3 1.45Q170.65 1.45 170.18 1.03Q169.7 0.6 169.55 -0.25L165.85 -18.55Q165.7 -19.25 165.95 -19.73Q166.2 -20.2 166.8 -20.4Q167.45 -20.65 168 -20.38Q168.55 -20.1 168.9 -19.35Q172.2 -12.65 175.73 -8.78Q179.25 -4.9 182.98 -3.28Q186.7 -1.65 190.45 -1.65Q195.9 -1.65 199.05 -4.6Q202.2 -7.55 202.2 -12.7Q202.2 -15.9 200.8 -18.6Q199.4 -21.3 195.7 -23.75Q192 -26.2 185.15 -28.5Q177.5 -31.2 172.9 -34.45Q168.3 -37.7 166.25 -41.85Q164.2 -46 164.2 -51.25Q164.2 -57.2 167.08 -61.68Q169.95 -66.15 175.08 -68.65Q180.2 -71.15 186.85 -71.15Q191.35 -71.15 194.25 -70.15Q197.15 -69.15 198.9 -68.12Q200.65 -67.1 201.65 -67.1Q202.5 -67.1 203.32 -68.15Q204.15 -69.2 205 -70.25Q205.85 -71.3 206.75 -71.3Q207.4 -71.3 207.85 -70.9Q208.3 -70.5 208.6 -69.4L213.6 -50.95Q213.8 -50.15 213.58 -49.58Q213.35 -49 212.7 -48.75Q212.05 -48.55 211.53 -48.8Q211 -49.05 210.65 -49.75Q207.05 -56.8 203.35 -60.83Q199.65 -64.85 195.8 -66.53Q191.95 -68.2 187.9 -68.2Q182.5 -68.2 179.18 -64.95Q175.85 -61.7 175.85 -56.2Q175.85 -52.9 177.25 -50.1Q178.65 -47.3 182.23 -44.8Q185.8 -42.3 192.35 -39.85Q200.3 -37 204.9 -33.75Q209.5 -30.5 211.48 -26.6Q213.45 -22.7 213.4 -17.8Q213.4 -12.5 210.8 -8.15Q208.2 -3.8 203.28 -1.23Q198.35 1.35 191.35 1.35Z" fill="#26312E"/>
    <path transform="translate(273.95 0)" d="M43.35 -18.1 37.95 -15.85 68.5 -65.3Q70 -67.8 71.83 -68.9Q73.65 -70 75.25 -70H85.55Q87.35 -70 88.03 -69.25Q88.7 -68.5 88.7 -67.15Q88.6 -65.75 87.8 -64.95Q87 -64.15 85.95 -63.8L83.35 -63.15Q82.1 -62.8 81.4 -61.78Q80.7 -60.75 80.35 -59Q80.05 -57.25 79.45 -54.12Q78.85 -51 78.08 -47.05Q77.3 -43.1 76.45 -38.78Q75.6 -34.45 74.75 -30.15Q73.9 -25.85 73.18 -22.08Q72.45 -18.3 71.93 -15.48Q71.4 -12.65 71.2 -11.25Q70.9 -9.45 71.3 -8.38Q71.7 -7.3 72.9 -6.85L75.6 -6Q76.55 -5.5 77.1 -4.9Q77.65 -4.3 77.6 -3.2Q77.5 -1.7 76.55 -0.85Q75.6 0 73.85 0H54.15Q52.3 0 51.62 -0.83Q50.95 -1.65 50.95 -2.95Q51.05 -4.25 51.83 -5.03Q52.6 -5.8 53.6 -6.2L56.3 -6.9Q57.65 -7.35 58.5 -8.35Q59.35 -9.35 59.75 -11.5Q60.05 -13.05 60.68 -16.2Q61.3 -19.35 62.15 -23.5Q63 -27.65 63.9 -32.23Q64.8 -36.8 65.65 -41.25Q66.5 -45.7 67.2 -49.53Q67.9 -53.35 68.3 -55.85L69.65 -55.5L43 -12.65Q41.3 -9.9 40.1 -8.9Q38.9 -7.9 37.1 -7.9Q35.65 -7.9 34.52 -9.15Q33.4 -10.4 32.95 -12.75Q32.5 -15.35 31.98 -18.85Q31.45 -22.35 30.88 -26.35Q30.3 -30.35 29.73 -34.48Q29.15 -38.6 28.58 -42.6Q28 -46.6 27.45 -50.1Q26.9 -53.6 26.4 -56.3L28.4 -56.6L14.75 -10.9Q14.3 -9.35 14.6 -8.38Q14.9 -7.4 16.05 -6.95L18.9 -6.05Q20.95 -5.05 20.8 -3.3Q20.75 -1.8 19.7 -0.9Q18.65 0 16.85 0H2.85Q0.9 0 0.17 -0.85Q-0.55 -1.7 -0.45 -2.95Q-0.4 -4.35 0.4 -5.18Q1.2 -6 2.55 -6.45L4.85 -7.1Q5.9 -7.4 6.58 -8Q7.25 -8.6 7.85 -10.12Q8.45 -11.65 9.3 -14.6L22.45 -58.4Q23.05 -60.5 22.73 -61.62Q22.4 -62.75 21.3 -63.2L18.45 -64.05Q17.5 -64.55 16.98 -65.2Q16.45 -65.85 16.55 -66.9Q16.6 -68.4 17.62 -69.2Q18.65 -70 20.3 -70H30.25Q32.75 -70 34.17 -68.43Q35.6 -66.85 36.25 -63.2Q36.75 -60.55 37.28 -57.03Q37.8 -53.5 38.38 -49.45Q38.95 -45.4 39.58 -41.15Q40.2 -36.9 40.83 -32.73Q41.45 -28.55 42.1 -24.83Q42.75 -21.1 43.35 -18.1Z M114.05 -45.9Q120.15 -45.75 124.08 -42.92Q128 -40.1 129.6 -35.25Q131.2 -30.4 130.25 -24.1Q129.45 -18.2 127.05 -13.47Q124.65 -8.75 120.95 -5.47Q117.25 -2.2 112.53 -0.53Q107.8 1.15 102.35 1Q96.5 0.8 92.55 -1.93Q88.6 -4.65 86.98 -9.5Q85.35 -14.35 86.35 -20.85Q87.1 -26.2 89.3 -30.8Q91.5 -35.4 95.03 -38.88Q98.55 -42.35 103.33 -44.23Q108.1 -46.1 114.05 -45.9ZM104.2 -5.05Q105.95 -4.95 107.75 -5.8Q109.55 -6.65 111.25 -8.32Q112.95 -10 114.4 -12.5Q115.85 -15 116.98 -18.2Q118.1 -21.4 118.75 -25.3Q119.65 -30.15 119 -33.35Q118.35 -36.55 116.6 -38.15Q114.85 -39.75 112.4 -39.85Q110.5 -39.95 108.6 -39Q106.7 -38.05 104.98 -36.18Q103.25 -34.3 101.83 -31.75Q100.4 -29.2 99.33 -26.08Q98.25 -22.95 97.7 -19.4Q96.8 -14.55 97.45 -11.43Q98.1 -8.3 99.88 -6.73Q101.65 -5.15 104.2 -5.05Z M138.45 -34.4Q137.45 -34.75 137.35 -36.03Q137.25 -37.3 138.2 -38.75Q140.3 -41.95 143.93 -43.88Q147.55 -45.8 151.3 -45.8Q154.4 -45.8 155.95 -44.53Q157.5 -43.25 157.5 -40.75Q157.5 -39.35 156.88 -37.53Q156.25 -35.7 155.2 -33.2Q154.15 -30.7 152.8 -27.18Q151.45 -23.65 149.95 -18.75L148.15 -19.1Q151.15 -26.6 154.7 -31.73Q158.25 -36.85 161.98 -39.95Q165.7 -43.05 169.38 -44.43Q173.05 -45.8 176.25 -45.8Q180.1 -45.8 181.75 -43.88Q183.4 -41.95 183.15 -38.45Q182.9 -34.95 181.15 -30.25L175.55 -14.45Q174.4 -11.3 174.55 -9.82Q174.7 -8.35 176.2 -8.35Q176.95 -8.35 177.75 -8.72Q178.55 -9.1 179.7 -10.15Q180.35 -10.65 180.88 -10.82Q181.4 -11 181.95 -10.7Q182.75 -10.35 182.9 -9.2Q183.05 -8.05 182.15 -6.35Q180.2 -2.95 177 -0.98Q173.8 1 169.9 1Q166.55 1 164.9 -0.53Q163.25 -2.05 163.18 -4.88Q163.1 -7.7 164.45 -11.55L170.2 -28.55Q171.7 -32.9 171.2 -34.88Q170.7 -36.85 168.15 -36.85Q166.15 -36.85 163.83 -35.6Q161.5 -34.35 159.15 -31.95Q156.8 -29.55 154.75 -26.18Q152.7 -22.8 151.25 -18.5Q150.3 -15.8 149.78 -14.18Q149.25 -12.55 149.05 -11.58Q148.85 -10.6 148.85 -9.8Q148.85 -8.5 149.25 -7.2Q149.65 -5.9 149.65 -4.35Q149.65 -1.85 147.33 -0.43Q145 1 140.9 1Q137.15 1 136.33 -1.83Q135.5 -4.65 137.7 -10.05L145.3 -30.2Q146.8 -34 146.65 -35.48Q146.5 -36.95 144.9 -36.95Q144.05 -36.95 143.15 -36.5Q142.25 -36.05 141.1 -35.1Q140.25 -34.5 139.63 -34.33Q139 -34.15 138.45 -34.4Z M218.15 -45.9Q224.25 -45.75 228.18 -42.92Q232.1 -40.1 233.7 -35.25Q235.3 -30.4 234.35 -24.1Q233.55 -18.2 231.15 -13.47Q228.75 -8.75 225.05 -5.47Q221.35 -2.2 216.63 -0.53Q211.9 1.15 206.45 1Q200.6 0.8 196.65 -1.93Q192.7 -4.65 191.08 -9.5Q189.45 -14.35 190.45 -20.85Q191.2 -26.2 193.4 -30.8Q195.6 -35.4 199.12 -38.88Q202.65 -42.35 207.43 -44.23Q212.2 -46.1 218.15 -45.9ZM208.3 -5.05Q210.05 -4.95 211.85 -5.8Q213.65 -6.65 215.35 -8.32Q217.05 -10 218.5 -12.5Q219.95 -15 221.08 -18.2Q222.2 -21.4 222.85 -25.3Q223.75 -30.15 223.1 -33.35Q222.45 -36.55 220.7 -38.15Q218.95 -39.75 216.5 -39.85Q214.6 -39.95 212.7 -39Q210.8 -38.05 209.08 -36.18Q207.35 -34.3 205.93 -31.75Q204.5 -29.2 203.43 -26.08Q202.35 -22.95 201.8 -19.4Q200.9 -14.55 201.55 -11.43Q202.2 -8.3 203.98 -6.73Q205.75 -5.15 208.3 -5.05Z M275.05 0.3Q273.05 8.4 268.93 13.88Q264.8 19.35 258.6 22.12Q252.4 24.9 244.2 24.9Q238.5 24.9 235.32 22.9Q232.15 20.9 232.15 17.75Q232.15 15.55 233.62 14.05Q235.1 12.55 237.55 12.55Q239.3 12.55 240.85 13.38Q242.4 14.2 243.88 15.28Q245.35 16.35 246.88 17.18Q248.4 18 250.1 18Q253.2 18 255.9 16.55Q258.6 15.1 260.65 12.08Q262.7 9.05 263.85 4.4L270.15 -20.3L271.65 -18.6Q268.7 -12.2 265.15 -7.85Q261.6 -3.5 257.55 -1.27Q253.5 0.95 249.05 0.95Q245.75 0.95 243.43 -0.68Q241.1 -2.3 240.05 -5.55Q239 -8.8 239.45 -13.65Q239.85 -18.35 241.6 -23Q243.35 -27.65 246.32 -31.8Q249.3 -35.95 253.35 -39.12Q257.4 -42.3 262.4 -44.12Q267.4 -45.95 273.2 -45.95Q277.95 -45.95 280.88 -45.25Q283.8 -44.55 285.08 -43.33Q286.35 -42.1 286.15 -40.4Q286 -39.2 285.5 -38.38Q285 -37.55 284.43 -36.62Q283.85 -35.7 283.45 -34.15ZM250.6 -15Q250.25 -12.25 250.68 -10.4Q251.1 -8.55 252.15 -7.65Q253.2 -6.75 254.7 -6.75Q257.05 -6.75 259.55 -8.6Q262.05 -10.45 264.4 -13.55Q266.75 -16.65 268.68 -20.45Q270.6 -24.25 271.83 -28.2Q273.05 -32.15 273.2 -35.6Q273.3 -37.6 272.35 -38.65Q271.4 -39.7 269.65 -39.7Q267.25 -39.7 264.73 -38.33Q262.2 -36.95 259.85 -34.55Q257.5 -32.15 255.53 -29Q253.55 -25.85 252.25 -22.27Q250.95 -18.7 250.6 -15Z M292.9 -34.25Q291.95 -34.35 291.5 -35.38Q291.05 -36.4 291.85 -37.9Q292.95 -40.05 294.95 -41.88Q296.95 -43.7 299.55 -44.78Q302.15 -45.85 305 -45.85Q307.75 -45.85 309.18 -44.45Q310.6 -43.05 310.6 -40.6Q310.6 -38.7 309.9 -36.08Q309.2 -33.45 308.12 -30.43Q307.05 -27.4 305.98 -24.15Q304.9 -20.9 304.15 -17.7L302.55 -18Q304.4 -24.55 306.88 -29.73Q309.35 -34.9 312.23 -38.48Q315.1 -42.05 318.18 -43.93Q321.25 -45.8 324.35 -45.8Q327.8 -45.8 329.73 -43.58Q331.65 -41.35 331.65 -37.5Q331.65 -34.6 330.6 -32.42Q329.55 -30.25 327.85 -29.02Q326.15 -27.8 324.25 -27.8Q322.3 -27.8 321.48 -28.75Q320.65 -29.7 320.65 -30.9Q320.65 -31.95 321 -33Q321.35 -34.05 321.35 -35.4Q321.35 -36.45 320.88 -37.03Q320.4 -37.6 319.35 -37.6Q317.4 -37.6 314.98 -35.4Q312.55 -33.2 310.2 -29.12Q307.85 -25.05 306 -19.45Q304.75 -15.6 304.33 -13.45Q303.9 -11.3 303.9 -9.6Q303.9 -8.4 304.3 -7.5Q304.7 -6.6 305.12 -5.85Q305.55 -5.1 305.55 -4.3Q305.55 -2.75 304.27 -1.55Q303 -0.35 300.75 0.3Q298.5 0.95 295.6 0.95Q292.85 0.95 291.6 -0.35Q290.35 -1.65 290.55 -4.2Q290.75 -6.75 292.25 -10.55L299.25 -29.85Q300.65 -33.55 300.53 -35.28Q300.4 -37 298.7 -37Q297.95 -37 297.12 -36.58Q296.3 -36.15 295.15 -35.1Q294.55 -34.65 293.98 -34.38Q293.4 -34.1 292.9 -34.25Z M368.15 -13.7Q367.45 -10.9 367.75 -9.6Q368.05 -8.3 369.4 -8.3Q370.3 -8.3 371.1 -8.78Q371.9 -9.25 372.95 -10.2Q373.6 -10.7 374.15 -10.88Q374.7 -11.05 375.1 -10.8Q375.95 -10.55 376.1 -9.53Q376.25 -8.5 375.55 -6.7Q374.05 -3.3 370.83 -1.18Q367.6 0.95 363.55 0.95Q360.8 0.95 359.3 -0.68Q357.8 -2.3 357.8 -5.35Q357.8 -6.55 357.95 -7.9Q358.1 -9.25 358.48 -11.1Q358.85 -12.95 359.58 -15.62Q360.3 -18.3 361.45 -22.15L362.35 -19.35Q359.15 -12.5 355.55 -7.97Q351.95 -3.45 348 -1.25Q344.05 0.95 339.8 0.95Q334.9 0.95 332.15 -2.6Q329.4 -6.15 330.15 -13.55Q330.5 -18.25 332.27 -22.9Q334.05 -27.55 337 -31.7Q339.95 -35.85 344 -39.05Q348.05 -42.25 353 -44.08Q357.95 -45.9 363.65 -45.9Q368.5 -45.9 371.45 -45.2Q374.4 -44.5 375.73 -43.17Q377.05 -41.85 376.9 -40Q376.75 -38.65 376.05 -37.75Q375.35 -36.85 374.58 -35.98Q373.8 -35.1 373.4 -33.65ZM341.2 -14.8Q340.7 -10.5 341.85 -8.55Q343 -6.6 345.1 -6.6Q347.35 -6.6 349.88 -8.58Q352.4 -10.55 354.83 -13.85Q357.25 -17.15 359.27 -21.08Q361.3 -25 362.58 -28.9Q363.85 -32.8 364.05 -36Q364.2 -37.8 363.3 -38.7Q362.4 -39.6 360.4 -39.6Q357.95 -39.6 355.4 -38.23Q352.85 -36.85 350.48 -34.42Q348.1 -32 346.15 -28.83Q344.2 -25.65 342.9 -22.05Q341.6 -18.45 341.2 -14.8Z M410.35 -10.4 416.85 -28.9Q418.3 -33.05 417.75 -34.95Q417.2 -36.85 414.75 -36.85Q412.15 -36.85 409.1 -34.67Q406.05 -32.5 403.25 -28.52Q400.45 -24.55 398.5 -19.05Q397.5 -16.25 396.93 -14.53Q396.35 -12.8 396.12 -11.73Q395.9 -10.65 395.9 -9.8Q395.9 -8.45 396.3 -7.2Q396.7 -5.95 396.7 -4.4Q396.7 -1.9 394.38 -0.45Q392.05 1 387.9 1Q384.05 1 383.35 -2Q382.65 -5 384.85 -10.35L392.4 -30.2Q393.9 -33.95 393.75 -35.45Q393.6 -36.95 392 -36.95Q391.15 -36.95 390.2 -36.48Q389.25 -36 388.05 -35Q387.3 -34.5 386.65 -34.33Q386 -34.15 385.5 -34.45Q384.55 -34.75 384.43 -35.98Q384.3 -37.2 385.2 -38.65Q387.3 -41.8 390.98 -43.8Q394.65 -45.8 398.35 -45.8Q401.4 -45.8 402.98 -44.53Q404.55 -43.25 404.55 -40.75Q404.55 -38.95 403.75 -36.83Q402.95 -34.7 401.73 -32.1Q400.5 -29.5 399.2 -26.2Q397.9 -22.9 396.95 -18.75L395.25 -19.1Q399.05 -28.8 403.8 -34.68Q408.55 -40.55 413.5 -43.18Q418.45 -45.8 422.85 -45.8Q426.25 -45.8 427.88 -44.35Q429.5 -42.9 429.5 -40.25Q429.45 -38.3 428.67 -36.03Q427.9 -33.75 426.75 -31.1Q425.6 -28.45 424.35 -25.38Q423.1 -22.3 422.1 -18.7L420.55 -19.1Q423.2 -26.1 426.55 -31.15Q429.9 -36.2 433.6 -39.45Q437.3 -42.7 441 -44.25Q444.7 -45.8 448.05 -45.8Q452 -45.8 453.52 -43.73Q455.05 -41.65 454.77 -38.15Q454.5 -34.65 452.95 -30.45L447.45 -14.95Q446.2 -11.5 446.27 -9.93Q446.35 -8.35 447.95 -8.35Q448.75 -8.35 449.57 -8.75Q450.4 -9.15 451.6 -10.15Q452.3 -10.65 452.83 -10.82Q453.35 -11 453.85 -10.65Q454.6 -10.35 454.75 -9.2Q454.9 -8.05 454.05 -6.35Q452.25 -3.2 448.95 -1.1Q445.65 1 441.65 1Q438.1 1 436.5 -0.68Q434.9 -2.35 434.98 -5.33Q435.05 -8.3 436.4 -12.15L442.05 -28.85Q443.4 -32.95 442.9 -34.9Q442.4 -36.85 439.9 -36.85Q437.4 -36.85 434.32 -34.67Q431.25 -32.5 428.35 -28.3Q425.45 -24.1 423.4 -18Q422.5 -15.55 422.02 -14.03Q421.55 -12.5 421.35 -11.57Q421.15 -10.65 421.15 -9.9Q421.15 -8.45 421.6 -7.2Q422.05 -5.95 422.05 -4.45Q422 -1.9 419.85 -0.45Q417.7 1 414.1 1Q411.2 1 410.07 -0.57Q408.95 -2.15 409.15 -4.75Q409.35 -7.35 410.35 -10.4Z M477.45 -4.5Q480.25 -4.5 481.8 -6Q483.35 -7.5 483.35 -9.65Q483.3 -10.95 482.75 -12.15Q482.2 -13.35 480.62 -14.85Q479.05 -16.35 476.05 -18.4Q472.45 -20.9 470.35 -22.93Q468.25 -24.95 467.35 -27.1Q466.45 -29.25 466.5 -31.95Q466.55 -35.9 468.83 -39.05Q471.1 -42.2 475.43 -44.05Q479.75 -45.9 485.85 -45.9Q490.45 -45.9 493.65 -44.6Q496.85 -43.3 498.48 -41.1Q500.1 -38.9 500.1 -36.15Q500.1 -33.8 499.2 -32.65Q498.3 -31.5 496.7 -31.5Q495.35 -31.5 494.25 -32.33Q493.15 -33.15 491.85 -35.3Q490.4 -37.9 488.55 -39.3Q486.7 -40.7 484.05 -40.7Q480.9 -40.7 479.05 -38.98Q477.2 -37.25 477.2 -34.7Q477.25 -33.45 477.85 -32.1Q478.45 -30.75 480 -29.12Q481.55 -27.5 484.4 -25.4Q488.45 -22.6 490.52 -20.33Q492.6 -18.05 493.3 -15.95Q494 -13.85 493.9 -11.5Q493.8 -7.85 491.6 -5.03Q489.4 -2.2 485.4 -0.6Q481.4 1 475.85 1Q470.7 1 467.17 -0.5Q463.65 -2 461.85 -4.38Q460.05 -6.75 460.1 -9.45Q460.1 -11.6 461.08 -12.8Q462.05 -14 463.65 -14Q465.2 -14 466.4 -13.03Q467.6 -12.05 468.75 -10.1Q470.4 -7 472.57 -5.75Q474.75 -4.5 477.45 -4.5Z" fill="#8C3A2E"/>
  </g>
</svg>